<svg height="512" viewBox="0 0 64 64" width="512" xmlns="http://www.w3.org/2000/svg"><g id="real_estate" data-name="real estate"><path d="m11 38a1 1 0 0 0 -1 1v14a1 1 0 0 0 2 0v-14a1 1 0 0 0 -1-1z"/><path d="m4 56.586 4-4v-12.586h-4z"/><path d="m22.471 34.117 7.28 3.883h23.538c2.277-.979 3.381-1.444 3.926-1.666l2.167-4.334h-54.764l3 6h.566a2.979 2.979 0 0 1 5.463-.382l7.947-3.532a1 1 0 0 1 .877.031z"/><path d="m29 4h-14v26h14zm-10 24h-2v-2h2zm0-4h-2v-2h2zm0-4h-2v-2h2zm0-4h-2v-2h2zm0-4h-2v-2h2zm0-4h-2v-2h2zm4 20h-2v-2h2zm0-4h-2v-2h2zm0-4h-2v-2h2zm0-4h-2v-2h2zm0-4h-2v-2h2zm0-4h-2v-2h2zm4 20h-2v-2h2zm0-4h-2v-2h2zm0-4h-2v-2h2zm0-4h-2v-2h2zm0-4h-2v-2h2zm0-4h-2v-2h2z"/><path d="m49 12h-18v18h18zm-14 16h-2v-2h2zm0-4h-2v-2h2zm0-4h-2v-2h2zm0-4h-2v-2h2zm4 12h-2v-2h2zm0-4h-2v-2h2zm0-4h-2v-2h2zm0-4h-2v-2h2zm4 12h-2v-2h2zm0-4h-2v-2h2zm0-4h-2v-2h2zm0-4h-2v-2h2zm4 12h-2v-2h2zm0-4h-2v-2h2zm0-4h-2v-2h2zm0-4h-2v-2h2z"/><path d="m59.438 38.434a1.583 1.583 0 0 0 -1.2-.367c-.8.3-13.106 5.639-21.32 9.218a2.97 2.97 0 0 1 -1.918.715h-13v-2h13a1 1 0 0 0 1-1v-1.4l-14.04-7.488-7.96 3.538v12.686l17.883 7.53 27.429-18.92a1.592 1.592 0 0 0 .688-1.296 1.544 1.544 0 0 0 -.562-1.216z"/><path d="m48.659 40h-15.159l3.97 2.117a1 1 0 0 1 .53.883v1.633c4.508-1.964 7.982-3.473 10.659-4.633z"/></g></svg>